name ./resultDataOpenSim/trcMotMarkerGrf/sub10/grf-04-07.mot
datacolumns 19
datarows 15
range 1.12400000 1.18000000
endheader

                time	     ground_force_vx	     ground_force_vy	     ground_force_vz	     ground_force_px	     ground_force_py	     ground_force_pz	   l_ground_force_vx	   l_ground_force_vy	   l_ground_force_vz	   l_ground_force_px	   l_ground_force_py	   l_ground_force_pz	     ground_torque_x	     ground_torque_y	     ground_torque_z	   l_ground_torque_x	   l_ground_torque_y	   l_ground_torque_z	
          1.12400000	          0.00000000	          0.00000000	          0.00000000	          0.00000000	          0.00000000	          0.00000000	          4.88494944	        292.72711618	         21.89225118	          0.00832823	         -0.07500000	         -0.11384691	          0.00000000	          0.00000000	          0.00000000	          0.00000000	         -0.29000448	          0.00000000	
          1.12800000	          0.00000000	          0.00000000	          0.00000000	          0.00000000	          0.00000000	          0.00000000	          7.23184704	        299.37627044	         22.38732769	          0.00774483	         -0.07500000	         -0.11418053	          0.00000000	          0.00000000	          0.00000000	          0.00000000	         -0.40760332	          0.00000000	
          1.13200000	          0.00000000	          0.00000000	          0.00000000	          0.00000000	          0.00000000	          0.00000000	          9.47792063	        307.05263900	         22.93377123	          0.00728461	         -0.07500000	         -0.11447231	          0.00000000	          0.00000000	          0.00000000	          0.00000000	         -0.53657375	          0.00000000	
          1.13600000	          0.00000000	          0.00000000	          0.00000000	          0.00000000	          0.00000000	          0.00000000	         11.61682572	        315.87468793	         23.52376615	          0.00701499	         -0.07500000	         -0.11471838	          0.00000000	          0.00000000	          0.00000000	          0.00000000	         -0.67282943	          0.00000000	
          1.14000000	          0.00000000	          0.00000000	          0.00000000	          0.00000000	          0.00000000	          0.00000000	         13.65748675	        325.98502711	         24.15084473	          0.00692065	         -0.07500000	         -0.11491073	          0.00000000	          0.00000000	          0.00000000	          0.00000000	         -0.81280701	          0.00000000	
          1.14400000	          0.00000000	          0.00000000	          0.00000000	          0.00000000	          0.00000000	          0.00000000	         15.62947193	        337.55506480	         24.83698001	          0.00695491	         -0.07500000	         -0.11502843	          0.00000000	          0.00000000	          0.00000000	          0.00000000	         -0.95398480	          0.00000000	
          1.14800000	          0.00000000	          0.00000000	          0.00000000	          0.00000000	          0.00000000	          0.00000000	         17.59826320	        350.77179824	         25.63602580	          0.00707865	         -0.07500000	         -0.11504619	          0.00000000	          0.00000000	          0.00000000	          0.00000000	         -1.09513348	          0.00000000	
          1.15200000	          0.00000000	          0.00000000	          0.00000000	          0.00000000	          0.00000000	          0.00000000	         19.65651708	        365.76834596	         26.60890332	          0.00727506	         -0.07500000	         -0.11492400	          0.00000000	          0.00000000	          0.00000000	          0.00000000	         -1.23645030	          0.00000000	
          1.15600000	          0.00000000	          0.00000000	          0.00000000	          0.00000000	          0.00000000	          0.00000000	         21.88586784	        382.54959876	         27.78893747	          0.00752847	         -0.07500000	         -0.11464586	          0.00000000	          0.00000000	          0.00000000	          0.00000000	         -1.37959625	          0.00000000	
          1.16000000	          0.00000000	          0.00000000	          0.00000000	          0.00000000	          0.00000000	          0.00000000	         24.32571525	        400.99912627	         29.17178049	          0.00778671	         -0.07500000	         -0.11426744	          0.00000000	          0.00000000	          0.00000000	          0.00000000	         -1.52752041	          0.00000000	
          1.16400000	          0.00000000	          0.00000000	          0.00000000	          0.00000000	          0.00000000	          0.00000000	         26.97805595	        420.96477105	         30.73042235	          0.00795616	         -0.07500000	         -0.11389522	          0.00000000	          0.00000000	          0.00000000	          0.00000000	         -1.68402636	          0.00000000	
          1.16800000	          0.00000000	          0.00000000	          0.00000000	          0.00000000	          0.00000000	          0.00000000	         29.83114913	        442.33200595	         32.42105231	          0.00796469	         -0.07500000	         -0.11361247	          0.00000000	          0.00000000	          0.00000000	          0.00000000	         -1.85321574	          0.00000000	
          1.17200000	          0.00000000	          0.00000000	          0.00000000	          0.00000000	          0.00000000	          0.00000000	         32.87135773	        465.03315043	         34.17906159	          0.00784976	         -0.07500000	         -0.11341452	          0.00000000	          0.00000000	          0.00000000	          0.00000000	         -2.03897385	          0.00000000	
          1.17600000	          0.00000000	          0.00000000	          0.00000000	          0.00000000	          0.00000000	          0.00000000	         36.08732381	        489.01670714	         35.93423500	          0.00773454	         -0.07500000	         -0.11323542	          0.00000000	          0.00000000	          0.00000000	          0.00000000	         -2.24454651	          0.00000000	
          1.18000000	          0.00000000	          0.00000000	          0.00000000	          0.00000000	          0.00000000	          0.00000000	         39.48140752	        514.21491545	         37.62812987	          0.00769441	         -0.07500000	         -0.11302196	          0.00000000	          0.00000000	          0.00000000	          0.00000000	         -2.47221464	          0.00000000	
